<?xml version="1.0" encoding="utf-8"?>
<!-- Generator: Adobe Illustrator 21.0.2, SVG Export Plug-In . SVG Version: 6.00 Build 0)  -->
<svg version="1.1" id="Capa_1" xmlns="http://www.w3.org/2000/svg" xmlns:xlink="http://www.w3.org/1999/xlink" x="0px" y="0px"
	 viewBox="0 0 145 145" style="enable-background:new 0 0 145 145;" xml:space="preserve">
<style type="text/css">
	.st0{fill:#00A651;}
	.st1{fill:#474F59;}
	.st2{fill:#FFFFFF;}
	.st3{fill:#EFEFEF;}
	.st4{fill:#CCCBCA;}
	.st5{fill:#E6E5E5;}
	.st6{fill:#FDCA5C;}
	.st7{fill:#353F49;}
</style>
<circle class="st0" cx="72.5" cy="73" r="67.5"/>
<rect x="28.2" y="37.7" class="st1" width="96.8" height="8.8"/>
<rect x="28.2" y="44.8" class="st2" width="96.8" height="47.3"/>
<rect x="34.8" y="50.3" class="st3" width="33" height="34.7"/>
<rect x="76" y="50.3" class="st4" width="41.8" height="8.8"/>
<rect x="76.6" y="63" class="st5" width="41.3" height="2.2"/>
<rect x="76.6" y="67.4" class="st5" width="41.3" height="2.2"/>
<rect x="76.6" y="71.8" class="st5" width="13.2" height="2.2"/>
<g>
	<path class="st6" d="M101.6,115.2H49.4c-2.8,0-5-2.3-5-5V78.7c0-2.8,2.3-5,5-5h52.3c2.8,0,5,2.3,5,5v31.5
		C106.6,112.9,104.4,115.2,101.6,115.2z"/>
	<rect x="44.4" y="81.4" class="st7" width="62.3" height="10.4"/>
	<rect x="51.5" y="97.6" class="st2" width="48" height="5.8"/>
	<rect x="51.5" y="107.4" class="st7" width="9.7" height="1"/>
	<rect x="64.3" y="107.4" class="st7" width="9.7" height="1"/>
	<rect x="77" y="107.4" class="st7" width="9.7" height="1"/>
	<rect x="89.8" y="107.4" class="st7" width="9.7" height="1"/>
	<rect x="72.9" y="100.4" class="st7" width="4.1" height="0.6"/>
	<rect x="79.3" y="100.4" class="st7" width="7.3" height="0.6"/>
	<rect x="88.9" y="100.4" class="st7" width="7.3" height="0.6"/>
</g>
</svg>
