<?xml version="1.0" encoding="utf-8"?>
<!-- Generator: Adobe Illustrator 21.0.2, SVG Export Plug-In . SVG Version: 6.00 Build 0)  -->
<svg version="1.1" id="Capa_1" xmlns="http://www.w3.org/2000/svg" xmlns:xlink="http://www.w3.org/1999/xlink" x="0px" y="0px"
	 viewBox="0 0 145 145" style="enable-background:new 0 0 145 145;" xml:space="preserve">
<style type="text/css">
	.st0{fill:#354C5B;}
	.st1{clip-path:url(#SVGID_2_);fill:#52646E;}
	.st2{clip-path:url(#SVGID_4_);fill:#718189;}
	.st3{fill:#F1C422;}
	.st4{fill:#E1B300;}
	.st5{fill:#C02A17;}
	.st6{fill:#D85C41;}
	.st7{fill:#FFFFFF;}
	.st8{fill:#B0AABA;stroke:#434F5A;stroke-width:2.9032;stroke-miterlimit:10;}
</style>
<g>
	<circle class="st0" cx="72.5" cy="73" r="67.5"/>
	<g>
		<defs>
			<circle id="SVGID_1_" cx="72.5" cy="73" r="67.5"/>
		</defs>
		<clipPath id="SVGID_2_">
			<use xlink:href="#SVGID_1_"  style="overflow:visible;"/>
		</clipPath>
		<path class="st1" d="M7.9,92.6c0,0,13.1-13.1,24.7,4.4c0,0,16-7.3,26.1,10.2c0,0,20.3-14.5,31.9-5.8c0,0,13.1-13.1,24.7-4.4
			c0,0,4.4-17.4,23.2-7.3c0,0-2.9,24.7-11.6,31.9c-8.7,7.3-61,50.8-101.6,14.5C25.3,136.1,2.1,105.7,7.9,92.6z"/>
	</g>
	<g>
		<defs>
			<circle id="SVGID_3_" cx="72.5" cy="73" r="67.5"/>
		</defs>
		<clipPath id="SVGID_4_">
			<use xlink:href="#SVGID_3_"  style="overflow:visible;"/>
		</clipPath>
		<path class="st2" d="M6.5,114.4c0,0,13.1-13.1,24.7,4.4c0,0,16-7.3,26.1,10.2c0,0,20.3-14.5,31.9-5.8c0,0,13.1-13.1,24.7-4.4
			c0,0,4.4-17.4,23.2-7.3c0,0-2.9,24.7-11.6,31.9c-8.7,7.3-61,50.8-101.6,14.5C23.9,157.9,0.6,127.4,6.5,114.4z"/>
	</g>
	<path class="st3" d="M80.5,107.1c0,5.6-8,14.5-8,14.5s-8-8.9-8-14.5c0-5.6,3.6-10.2,8-10.2S80.5,101.5,80.5,107.1z"/>
	<path class="st4" d="M77.7,103.5c0,3.6-5.2,9.4-5.2,9.4s-5.2-5.8-5.2-9.4s2.3-6.6,5.2-6.6S77.7,99.9,77.7,103.5z"/>
	<g>
		<path class="st5" d="M88.9,81.9c0,0,12.5,7.8,12.5,16.5c0,0,0,8.7-5.8,4.4c-1.7-1.3-3.8-3.7-7.9-3.8L88.9,81.9z"/>
		<path class="st6" d="M55.2,81.9c0,0-12.5,7.8-12.5,16.5c0,0,0,8.7,5.8,4.4c1.7-1.3,3.8-3.7,7.9-3.8L55.2,81.9z"/>
		<path class="st7" d="M89.4,56.8c-3.1-18.3-16.9-28.1-16.9-28.1s-13.8,9.8-16.9,28.1c0,0-3.1,25.3,0,42.1c0,0,3.1,7,16.9,5.6
			c13.8,1.4,16.9-5.6,16.9-5.6C92.5,82.1,89.4,56.8,89.4,56.8z"/>
		<path class="st6" d="M72.5,82.9c0,0-4.3,3.9-3,13.1c0.2,1.5,0.2,3.5,1,6c0.7,2.3,2,3.6,2,5V82.9z"/>
		<path class="st5" d="M72.5,82.9c0,0,4.3,3.9,3,13.1c-0.2,1.5-0.2,3.5-1,6c-0.7,2.3-2,3.6-2,5V82.9z"/>
		<circle class="st8" cx="72.5" cy="54.1" r="7.3"/>
	</g>
</g>
</svg>
