<?xml version="1.0" encoding="utf-8"?>
<!-- Generator: Adobe Illustrator 21.0.2, SVG Export Plug-In . SVG Version: 6.00 Build 0)  -->
<svg version="1.1" id="Capa_1" xmlns="http://www.w3.org/2000/svg" xmlns:xlink="http://www.w3.org/1999/xlink" x="0px" y="0px"
	 viewBox="0 0 145 145" style="enable-background:new 0 0 145 145;" xml:space="preserve">
<style type="text/css">
	.st0{fill:#3EB49C;}
	.st1{fill:#FFFFFF;}
	.st2{fill:#304955;}
	.st3{fill:#4E6A76;}
	.st4{fill:#E3543E;}
	.st5{fill:#FF6750;}
	.st6{fill:none;stroke:#FFFFFF;stroke-miterlimit:10;}
	.st7{fill-rule:evenodd;clip-rule:evenodd;fill:#C4E8E1;}
	.st8{fill-rule:evenodd;clip-rule:evenodd;fill:#FFFFFF;}
	.st9{fill-rule:evenodd;clip-rule:evenodd;fill:#375C62;}
</style>
<circle class="st0" cx="570.5" cy="378.5" r="49.5"/>
<g>
	<g>
		<circle class="st1" cx="585.1" cy="382.9" r="14.9"/>
	</g>
	<rect x="580.7" y="362.5" class="st1" width="8.8" height="11"/>
	<g>
		<circle class="st2" cx="585.1" cy="382.9" r="12.7"/>
	</g>
	<circle class="st3" cx="582.6" cy="384.3" r="3.8"/>
	<circle class="st3" cx="590.6" cy="388.5" r="1.4"/>
	<circle class="st3" cx="588.7" cy="377.2" r="1.4"/>
</g>
<g>
	<g>
		<path class="st1" d="M566.7,364.7v-8.8h-5.5h-5.5v8.8l-15.4,35.2c0,0,0,2.2,2.2,2.2h18.7h18.7c2.2,0,2.2-2.2,2.2-2.2L566.7,364.7z
			"/>
	</g>
	<path class="st4" d="M568.9,375.7h-7.7h-7.7l-9.9,23.1c0,0,0,1.1,1.1,1.1h16.5h16.5c1.1,0,1.1-1.1,1.1-1.1L568.9,375.7z"/>
	<circle class="st5" cx="556.8" cy="388.9" r="4.4"/>
	<circle class="st5" cx="566.1" cy="393.9" r="1.7"/>
	<circle class="st5" cx="563.9" cy="380.7" r="1.7"/>
</g>
<circle class="st6" cx="560" cy="351" r="2.5"/>
<circle class="st6" cx="563.5" cy="345.5" r="1"/>
<circle class="st6" cx="587" cy="359" r="1.5"/>
<circle class="st6" cx="584" cy="353" r="2.5"/>
<g>
	<circle class="st0" cx="72.5" cy="73.5" r="67"/>
	<path class="st7" d="M52.2,86.8V64.2h-9.3v31.8c0,3,1.7,5.4,3.7,5.4h0.4c0.2-1.6,0.6-3.1,1.1-4.4l0.4-1
		C49.8,92.9,51,89.9,52.2,86.8L52.2,86.8z"/>
	<path class="st8" d="M39.6,43.5h16v39.8c0.5-1.2,1.1-2.4,1.6-3.6l0.7-1.6V43.4h1.8v-7.1H35.4v7.1h1.8V95c0,3.4,1,6.5,2.5,8.8
		c1.5,2.3,3.7,3.6,6,3.6H47c-0.1-1.1-0.2-2.3-0.2-3.4h-1.1c-1.7,0-3.2-1-4.4-2.6c-1.1-1.6-1.8-3.9-1.8-6.4V43.5L39.6,43.5z"/>
	<path class="st7" d="M99.9,100.6c-0.7,0-1.4-0.6-1.4-1.4c0-0.8,0.6-1.4,1.4-1.4c0.7,0,1.4,0.6,1.4,1.4
		C101.2,100,100.6,100.6,99.9,100.6L99.9,100.6z M90.7,98.1c-1.2,0-2.2-1-2.2-2.2c0-1.2,1-2.2,2.2-2.2c1.2,0,2.2,1,2.2,2.2
		C92.9,97.1,91.9,98.1,90.7,98.1L90.7,98.1z M84,101.3c-0.8,0-1.5-0.7-1.5-1.5c0-0.8,0.7-1.5,1.5-1.5c0.8,0,1.5,0.7,1.5,1.5
		C85.5,100.7,84.8,101.3,84,101.3L84,101.3z M81.9,93c-0.3,0-0.6-0.3-0.6-0.6c0-0.3,0.3-0.6,0.6-0.6c0.3,0,0.6,0.3,0.6,0.6
		C82.6,92.7,82.3,93,81.9,93L81.9,93z M75.8,96.7c-0.7,0-1.2-0.5-1.2-1.2c0-0.7,0.5-1.2,1.2-1.2c0.7,0,1.2,0.5,1.2,1.2
		C77,96.2,76.5,96.7,75.8,96.7L75.8,96.7z M70,94.2c-1.2,0-2.2-1-2.2-2.2c0-1.2,1-2.2,2.2-2.2c1.2,0,2.2,1,2.2,2.2
		C72.2,93.2,71.2,94.2,70,94.2L70,94.2z M65.3,100.8c-0.3,0-0.6-0.3-0.6-0.6c0-0.3,0.3-0.6,0.6-0.6s0.6,0.3,0.6,0.6
		C66,100.5,65.7,100.8,65.3,100.8L65.3,100.8z M102.1,90.5c-6.6,1.7-13,1.5-16.8-1.1c-4.6-3-12.9-2.5-18.8-1.6
		c-0.9,1.4-10.8,15.2-9.2,15.4c17.3,0,34.7,0,52,0c0.4,0,0.6-0.1,0.3-0.5L102.1,90.5L102.1,90.5z"/>
	<path class="st7" d="M77.4,78.8c1.4,0,2.6,1.1,2.6,2.6c0,1.4-1.1,2.6-2.6,2.6c-1.4,0-2.6-1.1-2.6-2.6C74.9,79.9,76,78.8,77.4,78.8
		L77.4,78.8z"/>
	<path class="st7" d="M89.8,78.7c0.8,0,1.4,0.6,1.4,1.4c0,0.8-0.6,1.4-1.4,1.4c-0.8,0-1.4-0.6-1.4-1.4
		C88.4,79.3,89.1,78.7,89.8,78.7L89.8,78.7z"/>
	<path class="st7" d="M84.5,69.5c0.7,0,1.4,0.6,1.4,1.4c0,0.8-0.6,1.4-1.4,1.4c-0.8,0-1.4-0.6-1.4-1.4
		C83.2,70.1,83.8,69.5,84.5,69.5L84.5,69.5z"/>
	<path class="st9" d="M75.7,38.9h15.6c1.5,0,2.7,1.2,2.7,2.7v17.5c0,1.5-1.2,2.7-2.7,2.7H75.7c-1.5,0-2.7-1.2-2.7-2.7V41.6
		C73,40.1,74.2,38.9,75.7,38.9L75.7,38.9z"/>
	<path class="st1" d="M68.5,47.3h30c0.7,0,1.3,0.3,1.7,0.7h0c0.4,0.4,0.7,1.1,0.7,1.7v2.6c0,0.7-0.3,1.3-0.7,1.7h0
		c-0.4,0.4-1,0.7-1.7,0.7h-1.7c0,4.2,0,9.2-0.1,11.9c0,1,2.5,4.3,4.4,7c1.2,1.7,2.6,3.5,3.9,5.5c4,5.9,7.9,12.9,9.6,15.9l0.4,0.8
		c1.7,3,1.7,7.2,0,10.1c-1.3,2.2-3.3,3.4-5.7,3.4h0H57.6c-2.4,0-4.5-1.2-5.7-3.4c-1.7-2.9-1.7-7,0.1-10.1c4.3-7.7,8.7-15,13.9-22.2
		c2-2.7,4.4-6,4.4-7c-0.1-2.7-0.1-7.7-0.1-11.9h-1.7c-0.7,0-1.3-0.3-1.7-0.7l0,0c-0.4-0.4-0.7-1.1-0.7-1.7v-2.6
		c0-0.7,0.3-1.3,0.7-1.7C67.2,47.5,67.8,47.3,68.5,47.3L68.5,47.3z M93.1,54.8H74c0,4.2,0,9.1,0.1,11.7c0.1,2.1-1.7,4.7-5.2,9.4
		c-1.2,1.7-2.5,3.5-3.9,5.4c-3.9,5.8-7.8,12.7-9.4,15.6l-0.4,0.8c-1.1,1.9-1.1,4.6-0.1,6.3c0.6,1,1.4,1.6,2.5,1.6l51.8,0
		c1.1,0,1.9-0.5,2.5-1.6c1-1.7,1-4.5-0.1-6.3l-0.4-0.8c-1.6-2.9-5.5-9.8-9.4-15.6c-1.3-2-2.6-3.8-3.9-5.4c-3.4-4.7-5.2-7.3-5.1-9.4
		C93.1,63.9,93.1,58.9,93.1,54.8L93.1,54.8z"/>
</g>
</svg>
