<?xml version="1.0" encoding="utf-8"?>
<!-- Generator: Adobe Illustrator 21.0.2, SVG Export Plug-In . SVG Version: 6.00 Build 0)  -->
<svg version="1.1" id="Capa_1" xmlns="http://www.w3.org/2000/svg" xmlns:xlink="http://www.w3.org/1999/xlink" x="0px" y="0px"
	 viewBox="0 0 145 145" style="enable-background:new 0 0 145 145;" xml:space="preserve">
<style type="text/css">
	.st0{fill:#3EB49C;}
	.st1{fill:#FFFFFF;}
	.st2{fill:#304955;}
	.st3{fill:#4E6A76;}
	.st4{fill:#E3543E;}
	.st5{fill:#FF6750;}
	.st6{fill:none;stroke:#FFFFFF;stroke-miterlimit:10;}
	.st7{fill:#E37D3F;}
	.st8{fill:#D5DBDA;}
	.st9{fill:#23424B;}
	.st10{fill:#E9F1F0;}
	.st11{fill:#3B5666;}
	.st12{fill:#DBB53A;}
	.st13{fill:#F0C54D;}
	.st14{fill:#FFDD63;}
</style>
<circle class="st0" cx="570.5" cy="378.5" r="49.5"/>
<g>
	<g>
		<circle class="st1" cx="585.1" cy="382.9" r="14.9"/>
	</g>
	<rect x="580.7" y="362.5" class="st1" width="8.8" height="11"/>
	<g>
		<circle class="st2" cx="585.1" cy="382.9" r="12.7"/>
	</g>
	<circle class="st3" cx="582.6" cy="384.3" r="3.8"/>
	<circle class="st3" cx="590.6" cy="388.5" r="1.4"/>
	<circle class="st3" cx="588.7" cy="377.2" r="1.4"/>
</g>
<g>
	<g>
		<path class="st1" d="M566.7,364.7v-8.8h-5.5h-5.5v8.8l-15.4,35.2c0,0,0,2.2,2.2,2.2h18.7h18.7c2.2,0,2.2-2.2,2.2-2.2L566.7,364.7z
			"/>
	</g>
	<path class="st4" d="M568.9,375.7h-7.7h-7.7l-9.9,23.1c0,0,0,1.1,1.1,1.1h16.5h16.5c1.1,0,1.1-1.1,1.1-1.1L568.9,375.7z"/>
	<circle class="st5" cx="556.8" cy="388.9" r="4.4"/>
	<circle class="st5" cx="566.1" cy="393.9" r="1.7"/>
	<circle class="st5" cx="563.9" cy="380.7" r="1.7"/>
</g>
<circle class="st6" cx="560" cy="351" r="2.5"/>
<circle class="st6" cx="563.5" cy="345.5" r="1"/>
<circle class="st6" cx="587" cy="359" r="1.5"/>
<circle class="st6" cx="584" cy="353" r="2.5"/>
<g>
	<circle class="st7" cx="72.5" cy="73.5" r="67.5"/>
	<g>
		<path class="st8" d="M80.7,105.5H68.4c-1.1,0-2-0.9-2-2V89.8c0-1.1,0.9-2,2-2h12.4c1.1,0,2,0.9,2,2v13.7
			C82.7,104.6,81.8,105.5,80.7,105.5z"/>
		<path class="st9" d="M115.6,76.9H33.8v-43c0-1.1,0.9-2,2-2h77.8c1.1,0,2,0.9,2,2V76.9z"/>
		<path class="st10" d="M33.8,76.9h81.8v13c0,1.1-0.9,2-2,2H35.8c-1.1,0-2-0.9-2-2V76.9z"/>
		<path class="st11" d="M108.9,72.8H40.6c-1.1,0-2-0.9-2-2V38c0-1.1,0.9-2,2-2h68.3c1.1,0,2,0.9,2,2v32.8
			C110.9,71.9,110,72.8,108.9,72.8z"/>
		<circle class="st11" cx="74.7" cy="83.7" r="2.7"/>
		<path class="st10" d="M92.3,105.5H57.2v-2.1c0-1.1,0.9-2,2-2h31.1c1.1,0,2,0.9,2,2V105.5z"/>
	</g>
	<g>
		<polyline class="st12" points="92.3,103.4 92.3,124.4 112.5,113.1 112.5,92.9 92.3,103.4 		"/>
		<polyline class="st13" points="92.3,103.4 92.3,124.4 72.1,113.1 72.1,92.9 92.3,103.4 		"/>
		<polygon class="st14" points="72.1,92.9 92.3,82.4 112.5,92.9 92.3,103.4 		"/>
		<g>
			<polygon class="st1" points="100.1,86.4 80.6,97.2 80.6,102.6 83.4,104.2 83.4,98.5 102.5,87.6 			"/>
		</g>
	</g>
</g>
</svg>
