<?xml version="1.0" encoding="utf-8"?>
<!-- Generator: Adobe Illustrator 21.0.2, SVG Export Plug-In . SVG Version: 6.00 Build 0)  -->
<svg version="1.1" id="Capa_1" xmlns="http://www.w3.org/2000/svg" xmlns:xlink="http://www.w3.org/1999/xlink" x="0px" y="0px"
	 viewBox="0 0 145 145" style="enable-background:new 0 0 145 145;" xml:space="preserve">
<style type="text/css">
	.st0{fill:#F4C55A;}
	.st1{fill:#315B67;}
	.st2{fill:#1B3A52;}
	.st3{fill:#4EADD7;}
	.st4{fill:#67AEA7;}
	.st5{fill:#9DD6D3;}
	.st6{fill:#FFFFFF;}
</style>
<g>
	<circle class="st0" cx="72.4" cy="73.1" r="67.6"/>
	<g>
		<path class="st1" d="M113.8,106.3H31c-1.1,0-2-0.9-2-2V42c0-1.1,0.9-2,2-2h82.8c1.1,0,2,0.9,2,2v62.3
			C115.8,105.4,114.9,106.3,113.8,106.3z"/>
		<path class="st2" d="M107.4,101.4H37.3c-1.1,0-2-0.9-2-2V46.8c0-1.1,0.9-2,2-2h70.1c1.1,0,2,0.9,2,2v52.6
			C109.4,100.5,108.5,101.4,107.4,101.4z"/>
		<path class="st3" d="M79.3,96.7H48.1c-4.4,0-8-3.6-8-8V57.6c0-4.4,3.6-8,8-8h31.1c4.4,0,8,3.6,8,8v31.1
			C87.3,93.1,83.7,96.7,79.3,96.7z"/>
		<circle class="st4" cx="100" cy="62.1" r="4.7"/>
		<rect x="95.3" y="60.5" class="st5" width="9.5" height="3.2"/>
		<circle class="st4" cx="100" cy="82.6" r="4.7"/>
		<rect x="95.3" y="81" class="st5" width="9.5" height="3.2"/>
	</g>
	<g>
		<path class="st6" d="M59.4,84.2V61.3c0.9-0.9,2.4-0.9,3.3,0l9.8,9.8c0.9,0.9,0.9,2.4,0,3.3l-9.8,9.8
			C61.8,85.1,60.3,85.1,59.4,84.2z"/>
	</g>
</g>
</svg>
